<svg xmlns="http://www.w3.org/2000/svg" viewBox="0 0 34.875 34.875">
  <path id="Icon_awesome-symfony" data-name="Icon awesome-symfony" d="M18,.563A17.438,17.438,0,1,0,35.438,18,17.434,17.434,0,0,0,18,.563Zm9.4,10.093a1.228,1.228,0,0,1-1.39-1.186c-.019-.645.47-.945.459-1.325-.016-.461-.714-.48-.9-.469-2.8.091-3.416,4.008-4.141,8.005a4.682,4.682,0,0,0,3.174-.437c.844-.545-.235-1.105-.1-1.727a1.14,1.14,0,0,1,2.25.373c-.025,1.256-1.823,2.94-5.456,2.51C20.538,20.583,20,24.484,17.2,27.769A7,7,0,0,1,12.17,30.6c-1.733.06-2.883-.866-2.924-2.1a1.842,1.842,0,0,1,1.709-1.87c1.539-.053,2.118,1.8,1.046,2.391-.85.683.008.887.144.882a2.712,2.712,0,0,0,1.56-.633c1.688-1.406,2.337-3.857,3.189-8.321a44.163,44.163,0,0,1,1.282-5.766c-1.19-.9-1.9-2.007-3.505-2.441a1.908,1.908,0,0,0-2.237.551,1.621,1.621,0,0,0,.167,2.159l.888.984C14.579,17.7,15.176,18.679,14.951,20c-.356,2.1-2.863,3.72-5.828,2.808-2.531-.781-3-2.571-2.7-3.559.528-1.7,2.978-.824,2.434.956a8.749,8.749,0,0,1-.442.919c-.321,1.039,2.943,2,3.586-.1.314-1.021-.373-1.526-1.564-2.8a3.689,3.689,0,0,1,.207-5.6c3.713-2.767,7.068,1.232,7.775,1.815,2.614-7.664,7.069-7.415,7.2-7.42,1.769-.057,3.107.745,3.152,2.014A1.5,1.5,0,0,1,27.4,10.655Z" transform="translate(-0.563 -0.563)"/>
</svg>
